/* XPM */
static char *basalt_top[] = {
/* columns rows colors chars-per-pixel */
"64 64 7 1 ",
"  c #353641",
". c #4F4B4F",
"X c gray36",
"o c #747474",
"O c #1B2632",
"+ c #3D3E4C",
"@ c #898989",
/* pixels */
" ...X..ooXXooX  O  OoXX..    ++ X.ooXooXXX.oX.++  .XXXooXX..X.+ ",
" .XX..XXXoooXoX OOO  o..++    ++XooXoooo..XXoX.+O  ..ooX...X.  +",
"...XXXoXXXoXooo  O ++O   OO+++   XXooX...XX.X.. OO+ ..XoX...  ++",
".XXXXoXXXoooooooO +OO ++OO+++   O.XXXoX.X..XX. O++ OO ..XX  ++ .",
"X.XoXXXoo@ooooX.O+++OOOO+++   OO  .XX..oXX...    +++OOO   OO  ..",
"..oooXoo@@@@o..+ +   O  +..... OOO ..XXXooX..+ OO++  O+  OO ..X.",
"..XXooo@o@@oXX.++   ++ ....XXX..  O ...ooX..+ OO    ++ OO  ..XXX",
"X..oXXoo@@ooo.+    ++ .XX...XXX... +O ..XX +    oXX. +OO  ..X..X",
"..+.XooooX..+++  ++  .XX.XXX..XXX..++OO   +   @o@oXX.  O .....XX",
"X.++..XoXX   ++ ++OO ..XXoX..XXX... + ++ +++.X@@o@oo..+  ..X....",
"XX.+ ...  + ++O  OO ....XXooXXXXXX.. ++O+  .Xoo@@ooXX. +.XX...XX",
".X.+    ++++ OOO  ++XXX..ooXXo.XXXXX +O   ..o@ooo@X..XO++.XXXXX.",
"X..   +++O  Xo  +++ .XXXXXXoooX.X.XX+ O  XXooo@@@ooo..XO+ ..X..X",
"..+ OO +O .XooX. +OO..XXXX.XoooXX.X.+OOO Xo@@@@@oooXXo.OO+ ...X.",
"..++ OO  Xoo@oooX ++ .X.X.oXXoooXX.  OO ooXo@@oo@@@ooXo+O  OO...",
".+ +O   ooo@@@@oX. ++..XXXXoooXXX..  O +Xoooo@@oo@o@ooX.+ + OO .",
" + O   o@@@o@@oo.X. + ...X..XXX...  O  +oXXo@ooXoo@ooo.X+  ++   ",
"  O  .o@@@oXXooXX..  + ...XXX..X.  OO  O.Xooo.XoooooXo..  ++ OO ",
" OO .ooXX@@oXXoX..X.+ ++.XX.....  OO OO +.oooo..XooX.X.  + OOO  ",
" O OoXooXXo@ooXoX.X.++ +  ....O OO    OO ..oX..XooooX.. ++  O+O+",
"O   X.XooooooXXooX.. +  ++ OO  O  X..X    ...XoooXX...  +  o. ++",
"O   X.oXXXo.XoXXooX.   ++++ OO  ...Xoo.. O .XXXoooXX.  + .oooX +",
"   O X..oooo.XooX.. + ++  OO   ..XooXXoo. OOXooXXX..   XXooX..X ",
" OO  ..XXoXXoooX...+ ++  OO   ..XoXooXo... O  ooX.   .XooXXXX.. ",
"OOOO  ...XoooXXXX.++    O +  .....oXXXXXX.. O+     +XXooXXoX.X. ",
"  +O   .XXXo..X..++ OO +++   ..X.XX.XXoXXoX + + ++ XooXXooXXX.++",
"++  OOO ..oXXX..+ OO    +   ..XXX..oooooXXoX  ++ ++ooX.XXoooXX +",
"+  O O +  XX..   OO +     + ...XXoXXooXXoooo ++   .XX.X..XX..+++",
"oX   ++   OO   O++++..  ++ O.XX..XooXooXXooX+ +  O...X.XXX..++..",
"ooX.++ O   OOOO  +..XX..+ OOXX..XooXXXXoooX.+   OO ...XXX..+...X",
"XooX.O  OOO OO  +.XXX.XX.++O .XXXX.XXXoo.X.++O  O + X...X+ .XXoo",
"XXoo..O  O  O   .XX.XXX...++O..X..XXooXXX..+  O+ O++ XX + ...oXo",
"oooXX. +  OO ++.X..XXXXXX..++ ...XoooXX...+   OO+O + ++  .XXoXXX",
"XoooXX.+ OO ++.XXX..XXX.X..+ + .XooooooX.    OOO++O ++   XXoooXo",
"ooX..X. +  + ..X..XXoXoX.... +  ..XooX.. O OO  ++ OOO ++XooXooXX",
"XXoX..   O   .....Xo..XooXX.  ++  ooXX  O OO  .. + O OO+XXooXXoX",
"X....  OOO +..X.X...XXooXXoX + OO  +   OOO+  .oXXo    OO.XXooX.X",
".X.. +  O  +.XXX...XXXXXooXX++OO+++     O ++.oXXoooX  O ..XXXoX.",
".. ++ ++ O++ .X..X..XooooX. +    +++  O    ..X..X.Xoo  O ...X...",
"  ++.. ++ +  ..XooXXXXooXo.    ... +OOO+ + .XXX..XooXX O ..XXX..",
" +..X..X   +O ...oooXooXX. OO..X.X.  O O++XXo.XoXX.XXoX   ..X..+",
"...XXXXX..  OO .XXoXooX.. OO....X.... OO+ Xo.XooooX.X.o O ++..+ ",
".XXX..X..XX++OO ..X..X..OO ..XXX...XX.+  .ooooXoXXoXXX..O  ++  .",
"X.X.X..XX.XX+  O  ..X.  O ..XXooXX..X. + XXoXooXoXXX.XX. O     .",
"XX..XXXXoXoXX+   OO +  O .oXXooXXooXXX.+XX.XooXoo.X..X.  OOO++.X",
"X..X.XXoooXXX+  OO +++   ..ooXooXXooXoo ..Xo.XXo..XXX..  OO+  .X",
"XXX.XXooXXooXX    O+  + ...oooXXXooXoo++ ..XX..X.X.X.. OOO   ..X",
"XooXXXXXXXXoooX + O  O++.X.XoXoXooooXX + + ...XXX.XXX   O    .X.",
"XXooXoXXXoooooo + ++OO +XXXXXXXoXooXo.X  +++.XXX....  OO  O   .X",
"oXXXoooXoooXXoXX++++  O+.X.XXXoooXX..X.   ++XX.XX.. OOO  OO+ +  ",
" oXXXXooXXXooXX  +  + +  ..XXoXX..XX...+O  ++..X..   OOO  OO++ +",
" oooXXXXXXooXX. + ... ++ ...oooXX..... + O    .. O     O O O ++ ",
"  oXoXoXXX.X..+ ..XXoX  ++.XXoooXX....+   OO      OO+       O ++",
" O oooXXXX...+ ..XXoooXX ++.oXoX.....++  OOOO   OOO ++  ..   OO ",
"OO  XoooX...++.XX.oXXooXX  ..XXXX...++ OO O   OO   +  X....X  OO",
"O O   oXX++++ .X.XXXooXXX.  ...X..    OO    OO   ++ .X..XXX..X O",
"      +OO ++ ....XX..XXXo.. O.X.  O   XX..   OO ++ XX.X..ooX..X ",
"  O  +OO OO  .X..o..X.XooX. OO  OO  oooXX...  OO+ .XooXoXXooXX. ",
" O ++   ++ O .X.oXXX...oooX.O  OO  oXoXXooX.. O  ..ooXooooXXX.Xo",
" O  ++   ++   .Xooo...XoXoXX+ OO  .XoooooX.X. +  .XXXooooooXXXoo",
"OO++   .X.   +..XoXXoXoXXXoXX+O  .oo@ooXXoXXX. +.X.XX.XooX..XoXo",
"O +  ..X.X..  +..X.XXoooXXXX.  O .@@oo@oXXo.X.++..XX.XooX..XXXXX",
" + ...X..Xo.. + ..XooXXooX.. OO ..X@@@ooooXX..+  ..XXoXX.XX..X. ",
"  ...XXXooXXX.++  ..XX.XX.. OO  .X.X@ooooXXX.X   .XXXXXXXXXX... "
};
