/* XPM */
static char *basalt_side[] = {
/* columns rows colors chars-per-pixel */
"64 64 5 1 ",
"  c #3A3B48",
". c #32333D",
"X c #1B2632",
"o c #4F4B4F",
"O c gray36",
/* pixels */
"  .  ..X.   ooo oOoOOoOOOO  oOOOOOOOooOoOOoOoOooo ooOoOOo oOoo o",
"  ..  .X  .  oo oOOOOoOoOo oOOOOOOOOOoOooOoOoOooOo oOooOo  ooo o",
"  .  .XX. .  o ooOoOooOoO ooOoOOOOOOoOOoOOooOOoooO OOo oo. o oo ",
" .  ..XX...  o. oooOoOOoo oOOoOOOOoOoOOoOOooOooooOoOo oo .oo o  ",
" .. .XX.X.  . .  o ooOoOoooOoOOOOOooOOOoOo oooOooOOoo oo.. o  o ",
" .  .XX...  .... o oOOoOoOoooOOOOoOoOOOoOo ooOOoOOoo  oo . oo oo",
".  .X.X. . ....   oooOOOoOOooOOOOoOoOoOOoo  ooOOOo o  oo  . o  o",
". ..X.XX . . ... oooooOOOOOoOOOOooOOooOOoo oOoOoOo o ooo  ..o . ",
". X...XX.  .  . . oOoOOOOOOoOOoOooOOooOoooo OOoOooo  o o o . o. ",
"..X.X.XX. ..  .   oOOoOOOOOOoOoOoOOOoOooOoo OOoOo o oo ooo   o .",
".XX.X..X. . o .. oooOoOOOoOOoOooOOoOOOoOooOoOooOo  .o  oooo oo .",
"..XX...X .  oo . oooOOOOOoOOOoooOOooOOoOOoOoOoOOOo .o   ooo oo  ",
"..XX.X..   o o .ooOoOOoOOooOoo oOoooOoOoOoOOooOOoo..  o o ooo o ",
" .XXXX.  o o  o ooOooOoOOOoOoo oOOooooOoooOOoooOo . . o o o o o ",
" ..XXXX oo oo o  oOOoOooOOoOOoo oOooooOOo oOo oo.... o    o oo o",
". .X.XX. o  o oo oOOooOooOooOOo oOo ooOoo.oO  o . .. o     oo  o",
". .X..X. oo  ooOo oOoOOoOOooOoo  oo oOoo .oo o .  . oo o . oo o ",
"  .X...X.ooo ooOooOOoOooOOoooOoo o ooOoo. oooo .  . oo o..o o o ",
" ...X .X. o  ooOOoOoOOooOoo oOo oo oOOo .. oo    o .oooo.X  oo  ",
" ...X. XX.o ooOOOoOoOOoOOoo oo  o  oOOo  .  o .  oo. o o.X . o  ",
"  ..X. .X o oooOOOOOOoOoOo   o    oOOoO o  o  ..o o  o. XX.   o ",
". .....X.  ooOoOOoOOOoOooo.  o o oooOoO o oo . .o o o ..XX... o ",
".   ..XX.. ooOOOOooOOOOo o. . oo OooOOOooooo .  ooooo  .X.X. o  ",
".  ...XXX.  ooOOoOoOOoOO   .  oooOoooOOOo oo .o oo oo   ..X. o .",
" . X...X... oOoOoOooOooO   . oooOOooOOOo  oo. oooo o o ..X..oo .",
" ..X. .X... oOooOOooOOoo  ..o oooOOoOOOo o o.  oo oooo .XX..o o ",
" ..X.  .X... OOoOoo OOo o . o o oOoOOOO Oo  .. o  ooo  .X. .  o ",
"..X. . .X. . oOOoo .oOo o .oooo OOoOOOo Ooo  . o oooo  X..   o  ",
".XX. .. ..o .oOo o . o  oo ooo  oOOOOOooOOo o .  o o o.X.  o o .",
" X..... . o . oo o. .o ooo  oo  oOOOOooOOOo o ..  oo  .. o ooo .",
" X....  . oo. oo    .  o oo oo o oOOOOoOoOO  o .  o . .. ooOo  .",
" .X. . o .o  oo  o  ..   oOooo oooOOOOooOOOo o .  o . ..o oOo o ",
"..X.. oo .o oOo oo o .  ooOOo ooOoOOOOoOOOOOoo  .  .  .   ooOoo ",
" .X.. oo  o OOoooo oo. o OoOoOooOOoOOOoOOOOOooo .  .. . .oooOOo ",
" .X..  oo oooOoOo oOo oo OoOOOoOOOoOOOOoOOOoooo X. .  .. oOooOoo",
" .XX  ooo oooOoOo oOo oooOOOOooOOOOOOOOoOOOOoOo X. .   .o OOoOo ",
"  .X . o ooOooOO  OOoo oooOoOoOOOOOoOOOOOOOOoOo XX.. o .o oOoOo ",
". .. . o ooOooOo oOOOo  oooOOOOOOOOoOoOOOOOooOOo.X. oo  oooOOoo ",
". X.. o  oOOoOOooOOOOOo oOoOOOoOOOoooOOoOOOoOOoo  X.o o oOoOOo .",
" .X.  oo oOOOoOOoOOoOOoooOoOOOoOOOOooOOoOOOOoOOo .X.o  oooOoOo .",
" .XX   oo oOOOOooOOoOoo OOOOOOOoOOooOOoOOOOOoOo  XX. o oOoOoOo..",
" ..X. ooooOOOOOoOoOoOo  oOOOOOOoOOooOOoOOOOOOoo .X.. o oOoOOo . ",
"  .X. o ooOoOOooOOoOoo ooOOoOOOoOo oOooOoOOOoo  .X.X ooooOOooo. ",
"   X..o ooooOOoOOOoOOo oOOOoOOooOo  OooooOOOoO .XX.X. o oOOoo  .",
".  .X.o  ooOOOOOOOOOoOo OOooOOoooo. o ooOOOoOOo.XXX.. o ooOoo   ",
".. ..  . oOoOOOoOOOO oo OOoOOOoooo. o oOoOOoOOo.XXX.  o  ooOo. .",
"..  .. .ooOoOOOooOOo  oo O OOooOo .  ooOOOOOoOOo.X..   o oOO X .",
"... . .  oOOOOO oOOoo oooO oOoOOo  . ooOOOOOoOOo XX.  oo oOo.X. ",
". .   .. ooOOOo OOOOo. oo ooOOoOo ..ooOOoOOOoOoO .X o oo  Oo..X ",
".   o  . ooOOO oOOOOo.  o oooO o  . ooOOoOOOOOoO .. ooo o oo..X.",
". o oo .o OOOo oOoOOoo.  . o o o. . o OoOOOOO oo  .oooO o  o .X.",
". ooo  .o OoOo  ooOoo . ..oo oo ... o ooOOOOo ooo  oooOoo    .XX",
".. oo o ooOoo  .ooOo  . . o ooo  ..  oooOOoOo  o o o oOOo  o  .X",
".. oooo oooooo . ooo ...  o  ooo  .  ooooOoOoo o o o ooOo oo ..X",
"... o oo ooo o..  o o .. ooo ooo o . o ooooO o.  ooo ooOoo oo. .",
". . o ooo oo  .   o oo . oOo  oOo  .  oo ooo  . ooo ooOOoo o .  ",
".  oo  oo. oo . o  oOo .o oOo oOo o .  o oooo  . o  OoOOoOoo    ",
".  o o o . ooo oo oOOo .o OOo OOooo ..  ooOoo .. o  OooOoOoo o  ",
" .o  oo ..ooOooOoooOOOo ooOOooOOOooo .   oOOoo ..  oOOoOOooooo o",
" .o o o . ooOoOOoOooOoo  ooOOoOOooOoo. o oOOoo .   oOOooOOoOoo o",
"o . o o. oo oOOoOOOoOO o oOOOOoOooOOoo.ooOoOo   . ooOoOoOOoOo  o",
"o . o .. oo ooOoOOooOOoo OOoOOoOOoOOoo. oOoOOo o. o ooOoOooOo o ",
"oo.. o.X o oooOoOOoOOOOooOOoOOOOOOoOOo .oOOOoo o .  oOOOooOoo o ",
"o  .  XX.   ooooOOoOOOOoOOOooOOOOOOOOoo OOOOOooo   oooOOOoOOo oo"
};
