/* XPM */
static char *blackstone_top[] = {
/* columns rows colors chars-per-pixel */
"64 64 5 1 ",
"  c #160F10",
". c #1F121B",
"X c #27221C",
"o c #312C36",
"O c #3C3947",
/* pixels */
"oooXX..XXoooOOOOOooOOooXX..XXXooOOooOOOOooooXX.... XXooOOoXX..XX",
"XXXX..XoOOooooOOOOooOOXX....XXXooooOOooOOooo...XXX..XXoooXX.  .X",
" XX. XoooOOOoOOoooooooXX.  ...XXooooOOooOOoXX.XXX....XXXX   ..  ",
"  . .oOOoooOOOOOOoooOXX.     ...XooooooOOooXXXXoXooX...   .XXX..",
". . XoooOOoooOOOooOOoXX...    .  .XoooooooXXXXoooX...   .XXXooXX",
"X  .oooOOoooOOOOOOOoXX...   .XXX.  .XoooooXXXooXX..   .  .XoOOOo",
"X. XOOooOOOooOOOOoooXX.....XooooX.   .XXXooX..XX..     ..XoOooOO",
"XX XoOOOOOoOOOOOOOoXX. ..XooOOOoooX.   .XXXXX.. .XXXX...XXoooOOO",
".X.XooOOOOOOOooOOooXX  XoooOOooOOOoXX.    ...  .XXoOOOoX..XoOoOo",
".X..XOOooOOOOOooooXX. XoOOOooOOOOoooXXX.      .XoOOOooOOoX.oOOoX",
"X. .XoooOOOOooooooX. XoOOoooooOOOOOooXXX.   ..XooooOOOOOOoXXoOoX",
"X  ..XoOoooOOooooX. .oOooooooOooOOOOoX.X.. ..XoOOOoooOOooooXXo..",
". . .XXooooooOooX...XoooooOOooOOOOOOOo...  .XXOOOOOOooOOOooo.XX.",
"  ....XXoooooooX.  .oooooOOooooOOOOOOo... ..XoOooOOoooooOOOoX.XX",
" .XXX .XXooooX.   .XoooooooooOOooOOOooX.. .XXOooOooooooOOoOOo.X.",
" XXooX  .XXX.   ...XoooOOoooooOOooOOoXX... XoOOOOOooOoooOOooo.. ",
".oooXXX   .    ....XXoOOooooOOoooOOooX...  XoOOOoOOooOOooOOooX. ",
"XoXXXoX. ... ..  ..XXooOOooOOooOOOooXX.   .XooOooooOooOOOOOooX  ",
"oXXooXX....XXX..   .XXoooOOOOOOOoooXX...   .XooOOooooooOOOooXX .",
"ooooXX. .XXX..XXX.  ..XooooOOOoooXX...   ...XoooOOooooOOooooXX X",
"XooXXX .XooooXXX.  . ...XooooooXXXXX.   .....XooooOOooooOOoXX. X",
"XXXXX .XoooOOoooXXX.. .XXXXXoooooX.....  .  .XXooOOooooOOooXX .X",
"XXX...XooOOoOOoOOoXXXX...   ..XXXXX.  ..   ...XXoooooOOoooXX. ..",
".....XXooooOOOOoooooX..   ..XXXXX   ..   ...  .XXooooooooXX..  .",
"  ...XooooOOOoooooooooXX...    ...   ..XXXX  ....XXooooXX...    ",
".  ..XooOOoOOOoooooooooXXXX.  ...  .XXXXXXXXX  .XXXXX.....     .",
"....XXOooOOOooOOOooOooooX..     ..XXXoooXXXX..  ...XXXX.   ..   ",
"  ..XoOOOOOooOOOooooOOoooX...  .XXXoOOOoooX..... .XX........... ",
".. .XooOOOOOOOoooOOOOooooXXX  .XXoOOOOOOoooXX. .....   ...XoooXX",
"XX..XoOOOOooOOOOOOOoooooXXX  .XoOOOooOooooooXX. ..   ...XoOOOOoo",
"oXX..oooOOOOooOOOooooooXX....XoOOOOOOooOOOoooXX  ..   XXoOOooOOo",
"ooXX.XoOOOOooOooOOooooXXXX..XoOOOooOOOOooOOOoXX.  ...XXoOooOoooo",
"oooXXXoooOOOOoooooooXX......oOOooOOOOOOOOooOOoXX  ..XXoOOOoooooO",
"OooXXXXooooOOOOoooX...  ...XOOooOOooOOOoooooooXX. . XXoOOOOOooOO",
"oooXX.XXooOOooooXXXX.  .  .XOOOOoooooooooOOooooXX.  XXooOOooOOOo",
"ooXXXX..XooooXXXX......  .XXOOOOOooooOOoooOOoooXX.  .XXooooooOOO",
"XX.XXoX.   ..........  ...XXoOOOOOOooooOOooooooXX  . .XXXooooooo",
"..XooXoX. ..  ......  ....XXoOooOOoooOOOooooooXX.     ..XXXoooXX",
".XXXooX...   .... .........XXoOOooOOOOOoooooooXX    ..  ..  ....",
"...XXX.   .....  ...XXXX...XXoOOOooOOOoooooooXX  ..  ..  ..XXXX.",
"XX...  ......   ..XXXooooX..XXoOOOOOooXXoooXXXX   ..   XXXXXXXXX",
"XXXX     ..   ...XXoooOOOOoX.XooOOoooooXXXooXX  ..    ...XooooXX",
"oXXXX..     XXX..XooooooOOOOoXXooooooooooXXXX  ..  ..XXoooooXXXo",
"OOoXX....  XXooX..oooooOOooOOoXXoooXXXooXXX.....  .XooooooXXXXoo",
"oOOoXX. ..XoooooX.oooOOooOOOOOoXXX..XXXX.    ....XooooooXXXXoOoo",
"ooOooX. .XoooOOOoXXoOOooOOOOooOoXXX  ..  ..   ..XooOOOOooXXoooOO",
"OOoooX  XooOOooOOoXXoooOOOooOooooXX.      ..  .XoOOOOooOOooXXooO",
"OoooX  .XoOOooOOOooX.ooooOOooOooOoXX         .XXOOoooOOOooXXoooo",
"oooXX  XoOOOOOOOOOoX.XooooOOOOOOooXX.   ...  .XoOOOooooOOOoooooo",
"ooXX  .XoOOooOOOoOOoX.XXooooOOOoooX.......   XXOOooOOooooOOoooXX",
"XX.. XXoOOOOooOOOoooX..XXXoooooooXX......   .XoOooOOOOoooooOoXXX",
".. ..XXoOOooooOoooooXX...XXXoooXXX....      XXoOOOOOooOOoooooXX.",
"X.  XXooOoOooOOOooooXX.  ..XXXXX........  . XXooOOOooOOoooooooXX",
"XX..XXoOoooOOooOOooXXX  ......    ..   . .. XXooooOOooooooOOooXX",
"..  .XoOooooOOOOOooXX.     .....     ..  . ..XXooOOoooooOOOooXXX",
"   ..XXoOooOooOOOoXXX    .. .XXXXXX...  ..  .XXoooOOOOoooOOooX..",
".   ..XooOOooOOOooXX.   ...XXXXXoooooXXX...  .XXoooOOooOOOooXXX.",
"  ...XXXooOOOOoooXXX..   .XXXXoooOOOoooXXX.    ..XoooOOOOooXXX  ",
".   ....XoooooooXXX.....  XXXoOOOOOOOooooXX.  ..XXXXoooooXXX.  .",
"XX.  ..XXXXooooXXX....XXX. XooooOOooooOOooXX.  .   XXXXXXX.   ..",
"oXXX.  ...XXXX....XXXoooXX.XoooOOoooOOoooooXX.  ..   .XX.   ..Xo",
"oooXXX  ..   . .XXooOOoooXXXooOOOOOooOOoOOoXXX    . XooXX...XXoo",
"XXooX....  .XXooOoOOoooXooXXXoooOOOOOooOOOOoX..  ..XooOOoXXXXXoo",
"oXXXoXX..XXooooOOOOooooXXXXXXooOOOOoooOOOoooXXX.  .XoOOooooX.XXo"
};
