/* XPM */
static char *blackstone[] = {
/* columns rows colors chars-per-pixel */
"64 64 6 1 ",
"  c #312C36",
". c #27221C",
"X c #20131C",
"o c #160F10",
"O c #3C3947",
"+ c #4E4B54",
/* pixels */
"      .XXXXXXooXoooXXX..   .XXooXXXoooXXXXX. OOO ...XXXooXXX.   ",
"       .XXXoooXooXooX..  ..XXooXXoooXXXX..  OO     ...XXooXXX.  ",
" .   ....XXXoXXXXoXX. . ..XooXXXoooXXX..  OO         ..XXXoXXX..",
". .   . .XXXXXXXX...   .XXXXooXoXXoo..   OO O       .. .ooXXoXX.",
"X....   .XXXXXX...  ...XoXXXXooXXoX.... O             . .ooXoXoX",
"XX.. . . .XX.... . ..XooXXooooXXoX.. .         O        .XooXoXX",
"XXXX...   ..  . ...XoXoXooooXXooX.  .           OO       .oXooXX",
"XXXXX....   ....XXXoooXooXoooXXo.              O OOO   O .XXoXXX",
"XoXXXXXX......XooXoooXooXXXXooX.              OOOOOOOOO ..oXooXo",
"oXooXXXXXX...XXXXooXXXXXXXXoXXX..        O OOOOOOOOOOO  .XoXXooo",
"oooXXXoXX........XXXXXoXoXXXXX.. .    O   OOOOOOOOOOOOO.XXooXXoo",
"XoXXooX...........XoXoooXXXXoX.     OOOO OOOOOOOOOOO  ...XXoXXoo",
"oXXooX.....     ...ooXXoooXXo.     OOO OOOOOOOOO+OO ..XX..oXXooX",
"XoooX... .        ..XoXXoXXoo..   O   OOOOOOO+++O  ..XX.X..XXXoo",
"ooXX..              ..XoooXoX.      OOOOOOOO++OO  .XXXoX..XXoXoo",
"XXo.. .      O       ..XXooX.. O  OOOOOOOOO++OO  XXXXXooX..XXooo",
"Xo..       OO O     O ..oXoo... OO++OOO+O++OOO .XXXXXoXoX..XXXoX",
"XX.   O     OO  O  O O .XooXX.X. OO+++OO++OOO .XXXXXooXXX.XoXXoo",
"X.  OO    OO OOOOO OOOO .XoX.oX..  OO+++OOOO ..XXXXoXooX..ooXooX",
"X OOOOOO OOOOOOOOOOOOOOO..X..ooX... OO+OOOOO .XXXoXXoooX.XoXXooX",
".  OOOOOOOOOOOOOOOOOOOOO .XX.XooX.X... OOOO  XXXXXooooX..XooXoXX",
". OOOOOOOOOOOOOOOO+OOOO  ..o..oXoX.XX..  OO .XXoXoooooX..XoooooX",
" OOOOOOOOOOOOOOO++OOOO    .Xo.XoooXX..X.  O XXoooooooXo.XooXooXX",
"OOOOOOOOOOOOOO+++OOO   . ..oX..XoooXXo.X. O oXXXoooooo. .oXXoXX.",
" OOOOOOOOOO+++++OO ...XX..XooX...XoooXXX.. OXoooooXoXX  oXXoXX..",
"  OOOOOO+++OOOOOO .XXXoXX.XXo.X...XXooXXX..OXXooXooXX. .XXoXXX. ",
"     OOOOOO  ..XXXXoXXXoXX.XoXXX...XXXoXX.. ..XXoXX..  .XooXX.  ",
"    OO  OO ..XXXXXoooXoooX.oX... .....XX.... ..X.. O  .oXXooX.. ",
"      O   ..XXXXooXoooooX.XX..    ..XX..... .    OO ..oXXooX. . ",
"         ..XXXooooooooXoX...        .XXX.X..   OOO ..ooXooXX.   ",
"         ..XXooooooooXoX..           .XoXXXX.X.  ..XoXXooXXo .  ",
"        ..XXoooooooXooXX. .     O  O..ooXoXXXXXX..XooooXXXoX.   ",
"      .  .XoXoXooXXooXX.      OOOOO .ooXXXooXXooXXooooXXXooXX. .",
"       . .ooXXooXXooXXX.    OO OOO .oXXoXoooooXoooXoXXX.ooXXX.. ",
"       ..ooXoXXoooXXXX... O  OOO  ..XXoooooXXooXoXXX...XXoooXX. ",
".     . .XXXXooXXXXX...... OOOO  ..XoooooXooXXXoXX......XXoXoX..",
"..     .XXXoooXXXXX..X..XX..   ..XXXXooXXXXooXXX..     ..oXXooX.",
"X.... ..XXoooXoXX...XXXX.XXX...XXoXXooXXoXooXo...     .. .XXXoXX",
"XXX......oXXXXXX...XXXXXXooXXX..XXooXoooXXXX OO         . .oXXoX",
"XXXXX.......XX...X..XXooooXXooXX.oooXXoXX.  OO     O      .XoXoo",
"ooXXXX....  ....X.XXoooooXooXoooX.XooXX..OOO    OOO O      .oooX",
"ooooXoX.       ..XXXXoooXooXXXXXo..XX.  OOO  OOOOOOO       .XooX",
"oooXoX.         ..XXooXXooooXoooXX...  O OOOO OOOO   O     .XXoo",
"ooXX..            ..XXoXXooooooXXX.. OOOOOOOOOOOOOOOOOO O  .XXoo",
"XoX..       O    O  ..XXXXXooXXoXX..OOOOOOOOOOOOOOOOO OO  ...oXo",
"XX..      OOOO  OOOO ...XXooooXXXXX.OOO+OO+OOOOOOOOOOO  .....XXo",
"X.      O  OO OOOOO   ...XXoXooXXXX. OOO+++++OOOOOO  .XXXX....XX",
".      O OOOOOOOOOOO  . ..XXoXooXX.X. OOOOO+++++OO  .XXXX.X.....",
"        OOOOOOOOOOO O  ..X..XXXoXXXX...  OOOO+OO  .XXXXXXXXX....",
"         OOOOOOOOOOOO ..X.X..XXXoXX......  OOOO ..XXXXXXXXXX....",
"      O OOOOOOOOOOOO  .XXooXX.XXXX.....XX.  OO .XXXXooXoXXXXX.. ",
"  O OOOOOOOOOOOOOOOO .XXXXoo...XXXX..XoX...  O XXXXooooXoXXoX.. ",
"OO    OOOOOOOOOOOOO ..XXXoXoX..XXX..X.ooXX.. O.XXXoooXXoXoXXo.. ",
"O   OOOOOOOOOO+OOO  .XXooXXXXo..XX.XX.XooXo.  XXooXoXooooXXoo. O",
"OO OOOOOOOOO++OOO  .XXooXXoXXXo.X..oXX.XooX.. XooooooXooXoooX.OO",
"OOOOOOOOO+O++OOO .XXooooooooXoo....Xoo.XoX.X. oXXXooooXXoooX. OO",
"OOOOOOOO+++OOO  XXoooooooXXXooXo..XooX..ooXX..XXXooXXXooooXX. O ",
"O+OOOO++++OO  .XXoooXoooooXXoXXX..XoXXX.XooXX.XXoX.XXooooXX.   O",
"OO++++O+OOO  XXXXXXXooXoXXoXXX.X.XoXXoXX.XXoX..XXXX..XXoXX.    O",
"OOOOOOOOO  .XXXoXXoooXXXoXXXX....XXoXoooX..X.X..X...XXXX... .   ",
"  OOOOO ..XXoooXooooooooXXooXX..XXXXoooXXX..X...........XX..    ",
"    OO ..XXXXooooooXXooXXooX...X.XoXXooooX............XXXXX.    ",
"   O O..XXXXoXXoooooXXXooXX. .XXXooXooooXoX.........XXXXXXX..   ",
"      .XXXXXXXooooXXoXXX... .XXXoXoooXoXXXX........XXXXXXXXX..  "
};
