/* XPM */
static char *head[] = {
/* columns rows colors chars-per-pixel */
"20 20 102 2 ",
"   c black",
".  c #231E18",
"X  c #26211A",
"o  c #7A6B55",
"O  c #7B7A65",
"+  c #907924",
"@  c #A98F29",
"#  c #A98F2B",
"$  c #A9902B",
"%  c #B89C2E",
"&  c #D8B636",
"*  c #D9B937",
"=  c #DBB837",
"-  c #FFD73A",
";  c #FFD73E",
":  c #FFD83C",
">  c #A9914B",
",  c #A79375",
"<  c #A99576",
"1  c #A99577",
"2  c #D9BB60",
"3  c #9BCC7A",
"4  c #EDD54A",
"5  c #F7D645",
"6  c #FFD740",
"7  c #FFDB41",
"8  c #FFD845",
"9  c #F0D64B",
"0  c #FFD848",
"q  c #FDD94D",
"w  c #FFD851",
"e  c #FFD853",
"r  c #FFD95D",
"t  c #FFDE64",
"y  c #FFDB6E",
"u  c #FFDB6F",
"i  c #FFDD70",
"p  c #FFDC7D",
"a  c #FFE06A",
"s  c #FFE47D",
"d  c #29C0BB",
"f  c #4DC9BF",
"g  c #76CCBD",
"h  c #00BAD4",
"j  c #00BBD7",
"k  c #10BED1",
"l  c #13BFD1",
"z  c #27C1CF",
"x  c #26C6DA",
"c  c #26C6DC",
"v  c #3AC8D7",
"b  c #5FC3C1",
"n  c #58C8C8",
"m  c #5AD1DC",
"M  c #6AD2D2",
"N  c #49CFE1",
"B  c #9B9B81",
"V  c #D9BF98",
"C  c #D9BF99",
"Z  c #85CA86",
"A  c #85CCA0",
"S  c #84C6B8",
"D  c #F3DB8F",
"F  c #FFDD8B",
"G  c #F2DC97",
"H  c #FFDD91",
"J  c #FFDE97",
"K  c #FEDE9E",
"L  c #FFE689",
"P  c #FFE391",
"I  c #DBDDB9",
"U  c #DFDCB8",
"Y  c #E7CBA1",
"T  c #EBCBA1",
"R  c #FFDFAB",
"E  c #E4DEB9",
"W  c #EDDEB8",
"Q  c #FFE9A8",
"!  c #FFE0B1",
"~  c #FFE1B2",
"^  c #FEE0B4",
"/  c #FFE1B4",
"(  c #FFE4B5",
")  c #FBE4BD",
"_  c #FEE4BD",
"`  c #85CFC3",
"'  c #FFE6C2",
"]  c #FFE7C4",
"[  c #FFEBCD",
"{  c #FFECD1",
"}  c #ECF3D9",
"|  c #FFF6D6",
" . c #FBF7DD",
".. c #FFF8DD",
"X. c #E9F6F4",
"o. c #E7F9FB",
"O. c #FAFBF7",
"+. c #FFFBF5",
"@. c #FFFDF7",
"#. c #FFFEF9",
"$. c #FAFEFF",
"%. c #FFFEFC",
/* pixels */
"+ = & & & & & & & & & & & & & & & & & % ",
"$ 7 6 7 6 6 6 6 6 7 6 7 7 6 7 6 6 6 7 = ",
"@ 7 6 6 6 6 6 6 6 6 6 6 6 6 6 6 6 6 7 & ",
"@ 7 6 6 6 6 6 6 6 6 6 6 6 6 6 6 6 6 7 & ",
"@ 6 6 6 6 6 6 6 6 6 6 6 6 6 6 6 6 6 6 & ",
"@ 7 6 6 6 6 6 6 6 6 6 6 6 6 6 6 6 6 6 & ",
"@ 6 6 6 6 ; ; ; 6 6 6 6 6 6 6 6 6 6 7 & ",
"# 7 6 6 6 t u r 6 6 6 6 6 6 6 6 6 6 7 & ",
"@ 7 : : 7 H ^ F 6 6 6 6 6 6 6 6 7 : 7 & ",
"@ 7 8 0 q G W D 0 0 6 6 5 4 9 q w 8 7 & ",
"@ 6 t |  .M z g K J w ; 3 d f } ..s : = ",
"@ : u @.$.N j n ^ R e - Z j c o.%.L : = ",
"> i P %.$.N j n ^ R p i A h x o.%.Q u 2 ",
"1 ^ ] %.$.N h n ^ ~ ^ ~ ` j x o.%.{ ^ C ",
"< ^ ' @.O.m l b Y Y Y T S l v X.%.[ ~ V ",
"< ^ ~ _ _ E I B X X X . O I U ) _ ~ ~ C ",
"< ^ ! ! ! ~ ^ ,         o ( ~ ! ! ! ^ C ",
"< ( ! ~ ! ! ( ,         o ( ! ! ! ! ~ C ",
"< ( ~ ~ ~ ~ ( ,         o ( ~ ~ ! ! ^ C ",
"< ~ ~ ~ ~ ^ ( ,         o ( ~ ^ ^ ! ^ C "
};
