/* XPM */
static char *stripped_spruce_log[] = {
/* columns rows colors chars-per-pixel */
"64 64 7 1 ",
"  c #61512D",
". c #675631",
"X c #705934",
"o c #795B37",
"O c #7E5E38",
"+ c #826038",
"@ c #866238",
/* pixels */
"   .X.XX.XoooOoOO@ooOOoO@+OX.XOoooooooXooXoXoXoo+@@+OoooXoX.....",
" . .X.oX..ooOOoOO@oooOoO@OOX.oOooooXooXXoXoXoXoo+@++oooXXooX..X.",
" ...XXooX.oXOOOO@@oOoOoO+OOXXoOooooXoXoXooXXoXXoo@+++ooXoXoXX.X.",
"  ..XXooXXXXOoOO@@OooooO+OoXXOOooooXoXooooXXooXOo@o++ooXoXo.XX..",
"  ..X.XoXoXXooOO@@OoXooOOOooXOoooooXXXooXoXXoooOo+oo+oXXoXX..X. ",
" .....XoooXoooOO@OOOXooOOoXoOOoooooXXXooXXXoooOoo+oo+oXXooX. X  ",
" ..X..XXo+XoooO@@OOOooOoOOXOOOoOoooXXXXoX.XoooOooooo+ooXoo.. .  ",
" ..X..oXo+Xoooo@@OoOoXOoOOXOOOoOooXXX.XoX.XoooOooooo+ooXXo.  .  ",
"..XX.XoX++oooOo@OOoooXooOOo@OOOOooXoX.XXX.XoXoOoXooooooXXX.     ",
"..XX.Xoo++oooOO@OOooOXooOOo@OOOOooooXXXXX.ooXOOoXXoooooXXXX .   ",
"...XXX+o++oOoOO@OoOoOoXoOoO@OoOOoXooXXXX.oOXoOOoXXoooXooX.X..   ",
"...XXX+o+ooOoOO@OoOOOoXoOoO@OoOOOXooXX.X.XOOo+OooXoooXooXX..    ",
". .X.Xo++oXooOO@OOOOOoXoooO@@OOoOXooXX...XoOo+OoXXooXoooXX.X    ",
". ...Xo+ooXoooO@OOOOooXoooo@@OOooXoooX...Xooo+oXoXooXoooXXXX.   ",
"  ..XXooooXXooOOOOoOoXXOoXoO@OoooXXooXX..XooO+oXoooXXoooXXoX.   ",
"  ..XXooXoXXooOOoOoOoXoOXXoO@OoooXXooXo.XXOoO+oXOooXooooXXoX    ",
" .X.XoXoXooXoOoOoOooXXOoXXoO@OoOooXoXooXXXOoO+ooOooXoXoooXoo .  ",
" .X.XoXoX.oXoOoOOOooXXooXooo@OoOooXoXooXXoOoO+OoOXoXoXoooXoo .  ",
"..XXooXXX.oooOooOOOo.XooXoOo@OOoooOoXXooXoooOO+ooXXoXXooooXo..  ",
"..XXooXXX.ooOOooOOOo..ooooOO@OOoooOOoXooXoooOO+ooXXoXXXoooXo... ",
" .XXoXXXX.Xo@OOoOoOo..oXooOOOOOoOo+Ooooooooo+O+ooX.XXoXoooXo. . ",
" .XXoXXX..Xo@OOoOoooX.oXooOOOoOoOO+OoooooooO+O+Ooo.XooXoooXX.   ",
" ..XXXXX.XXX@+OooooOX.XXOooOOoOOoO+oooXooooOOO+OoOX.ooXoooX..   ",
"...XXX.X.XoX@@OoOooOX.XoOOoOOooOoO+oOooXoooOOO+OoOX.XoooXo.X.   ",
".. .XX..XXoX@@OOOooOXX.ooOooOOoOo++oOooXoOoO+O@OOOo.XoooXX.X    ",
".. .X...XXXX@@OOOooOXX.XoOooOOoOO+OOOooXXOOO+O@OOoo..XooXXXX    ",
" .  ..X.XoXXO@OOOoOOoX..oXooOOOOO+OOOoXoXOOO++@OOooX.XoXXXX.    ",
" .  ..X.XooXO@OOooOOoX..oXoOoOOOO+OOOoXoooOO++@OOooX.XoXXXX.    ",
".   ..XXoooXO+OOooOOOoX.XXoOoOOOO+OOOoXoOoOO+@@OoOoo.XX.XX..    ",
". . ..XXoooXOOOOooOOOoX.XXoOooOOOOOOooooOooOO@@OoOOo.oX.XX...   ",
"  ....XXoXooOOOOoOOoOoX.XXooXoOO@OOOoOooOOoOO@+OOoOoXoXXXX.X.   ",
" ...X.X.oXOoOoOOoOOoooX..XXoXoOO@OOOoOoooOoOO@OOOOOoooXX.XXX.   ",
" . .X.X.ooOoooOOOOoOoooX.XXoXoOO@OOooooXoOOOO+oOOOoooXXX..XX..  ",
" . .X.XXooOOooOoOOoOoooX.XXXooO@@OOooooXoOOOOooOOOooXXX...XX..  ",
"  ....XXoXoOooOo+OoooooXXXXXooO@OOOoOoXXooOOOoooOoOoXXX. .X...  ",
"  ...XXXXXoOooOO+OooOooXXXoXOo+@OOOoOoX.ooOOooooOoOoXXoX .X. .  ",
"  ...XX.XXoXooOO++ooOoooXXooOO@@OOooOOo.oXoOoooXooOOoXoX  X.    ",
". . .X..XXoXooOo++ooOoooXXooO+@@OOooOOo.XXoOoOoXooOOoooX  ..    ",
". . XX..oXXXooOoO+OoOOooXOooO+@+OOoOO+oXX.ooOOXXoXoOooXX. ..    ",
".   XX..oXXXoOooO+OooOXooOoOO+@+OOoOO+oXX.XoOoXoXXoOooXX. ...   ",
"..  XX.XooXXoOoXOoOoooXoOooOOO@+OOOO++oXX.XooXXo.XoOXoX... ..   ",
"..  XX.XooXXoooXooOooooOOooO+O++OoOO++Xo.XXoXXXX.XooXoX.X. ...  ",
".. .oXXXXoXXoooXoOoXoOoOOoOO+O+OOoOO++Xo.X.XXXX..oooooX.XX.. .  ",
" . .oXXX.oXXooXXoooXoOOOOoOO+O+OOOOO+Ooo...X.XX.XooOoo..XX.. .  ",
" ...ooXX.XXoooXXoXoXoO+OooO++OOOOOoO+OoX..X..Xo.XoOOoX..oX. ..  ",
" ...XoX..XXoooX.oXXXoO+OooO+OOoOOOoO+OXXX.X..XoXoXOooX.XoX. ..  ",
" ...XoX.XXXoXoX.XXXooO+OooO+OOooOOooOOXXX.....oXooooo..XXX....  ",
"....XoXXXXXoXXX.XoXooO+oooOOOOooOOooOOXoX.X. .XXooooX..XXX.X..  ",
".. .XooXXXXXXXX.XoXoo++oOoO+OOooOooXOoooXXX. .XXoOoOX.XXoXXX..  ",
".. ..ooXXXXXXXX.XXooO++OOoO+oOoXOoXXooOoXXX.  XXoOoOX.XooXX..   ",
".. ..XoXX.XXXoXX.XooO@+OOoO+oooXooXXoXOOXXoX  XoOOooXXXooXX..  .",
"..  ..oX..XoXoXX.XooO@OOOoO+ooooooX.oXOOoXoX  XoOOoooXXoooXX.  .",
"..  X.XX..XoXXXX..oXO@OOoo++OoXooOX.XXoOoXXX. .XOOOooXooXo.X.  .",
"..  X.XX.XXoXXXoX.XXO@OOoo++OoXXoOo.XXXOXXXXX .XOoOooXooXo.X.. .",
". . .X.X.XooXXXoX.X.O+oOoo++ooXXOOoXX.XoXXXoX...ooOoOooooo......",
". . .X.X.XoooXXoX...o+oOoo+Ooo.XOOXoX.XoXXXoX.X.ooOOOoOooo... ..",
". ..XX..XXoooXooXX..XOoooO+OoX.oOoXoX.XXXXooXXX.Xo+OOoOooX... ..",
"  ..XX..XXXooXooXX.XXOoooO+OoXXoOoooX.XXXXooXX.XXO+OOOOooX..  ..",
"  ..X...XoXOoooOXo.XXooOo++oo.XoooooX..XXXoXXXXXoO@OoOOoXXX.  . ",
"  X.X.X.XooOoooOooXXooOOo@+oo.XooXooo..XXoXXoXXXoO@+oOooXXX. .  ",
"  X...XXXXoOoOooOooXooOoo@OoX.XooXXooX.XXoXXoXoXoo@+ooooXoXX..  ",
"  ...XX.XXXOOOooOooXooOo+@OoX.ooOXXooX.XooXXXXoooo+@ooXoooXX..  ",
"  . .XX.X.XoOOooOOooOooo@@oo..oXOoXoooXXoXXXoXoX+o+@OoXXoooXX.. ",
"    ..X.X.ooOOooOOooOooO@+oo.XoXooXoooXXoXXXoooX++@@OooXooX.X.. "
};
